<svg width="85" height="66" viewBox="0 0 85 66" fill="none" xmlns="http://www.w3.org/2000/svg">
<path d="M8.4664 4.84632V55.6831C8.4664 56.9291 8.4664 57.9758 8.4664 58.823C8.51624 59.6205 8.56608 60.2933 8.61592 60.8416C8.66576 61.3898 8.7156 61.8134 8.76544 62.1125C8.86512 62.4115 8.93988 62.6607 8.98972 62.8601C9.18908 63.7074 9.73732 64.455 10.6344 65.1029H1.88752C2.58528 64.6045 3.1086 63.9566 3.45748 63.1591C3.55716 62.9598 3.63192 62.7106 3.68176 62.4115C3.78144 62.1125 3.8562 61.6888 3.90604 61.1406C3.95588 60.5924 3.9808 59.8946 3.9808 59.0473C4.03064 58.1502 4.05556 57.0288 4.05556 55.6831V21.9664C4.05556 17.2814 3.90604 14.2412 3.607 12.8456C3.3578 11.8488 2.95908 11.0265 2.41084 10.3786C1.8626 9.6808 1.09008 9.20732 0.0932801 8.95812L8.4664 4.84632ZM41.8135 0.958793L20.2826 64.5048H17.1426L38.6735 0.958793H41.8135ZM49.2661 65.1029C52.1568 62.4614 54.9977 59.5956 57.7887 56.5055C60.6296 53.4154 63.321 50.3752 65.8628 47.3848C67.4078 45.6404 68.903 43.896 70.3484 42.1516C71.8436 40.3573 73.1644 38.5132 74.3107 36.6193C75.457 34.7254 76.3791 32.7069 77.0768 30.5638C77.7746 28.4206 78.1234 26.1031 78.1234 23.6111C78.1234 21.5676 77.7746 19.6239 77.0768 17.7798C76.3791 15.9357 75.4072 14.3159 74.1612 12.9204C72.9152 11.5249 71.42 10.4284 69.6756 9.63096C67.9312 8.78368 65.9874 8.36004 63.8443 8.36004C61.6513 8.36004 59.5331 8.85844 57.4897 9.85523C55.4462 10.8022 53.6769 12.1728 52.1817 13.967C53.4776 10.9766 55.3715 8.65908 57.8635 7.01436C60.3555 5.36964 63.2462 4.54728 66.5356 4.54728C68.6289 4.54728 70.6474 4.92108 72.5912 5.66868C74.535 6.36644 76.2545 7.36324 77.7497 8.65908C79.2947 9.95492 80.5158 11.5249 81.4129 13.369C82.31 15.1632 82.7586 17.1568 82.7586 19.3498C82.7586 21.9913 82.2103 24.6079 81.1138 27.1996C80.0174 29.7912 78.6468 32.3082 77.0021 34.7503C75.3573 37.1426 73.5631 39.4353 71.6193 41.6282C69.7254 43.8212 67.981 45.8646 66.3861 47.7586C64.243 50.2506 62.075 52.7176 59.882 55.1598C57.689 57.602 55.7453 59.7202 54.0507 61.5144H73.1145C74.8589 61.5144 76.3292 61.4646 77.5254 61.3649C78.7215 61.2652 79.6685 61.1655 80.3663 61.0658C81.9611 60.8166 83.3816 60.2186 84.6276 59.2716C84.6774 59.2218 84.7023 59.1968 84.7023 59.1968C84.7522 59.1968 84.802 59.1719 84.8519 59.1221L82.6838 65.1029H49.2661Z" fill="white"/>
</svg>
