<svg width="23" height="23" viewBox="0 0 23 23" fill="none" xmlns="http://www.w3.org/2000/svg">
<path d="M18.9128 10.9602C18.8364 9.49377 18.3264 8.08301 17.4474 6.90673C17.1795 7.19519 16.8932 7.46593 16.5903 7.71725C15.6595 8.49035 14.6194 9.12138 13.5038 9.58981C13.6594 9.91588 13.8019 10.2317 13.9277 10.5298V10.5326C13.9632 10.6159 13.9974 10.6998 14.0302 10.7842C15.4407 10.6258 16.9275 10.6835 18.3688 10.8782C18.5607 10.9043 18.7414 10.9323 18.9128 10.9602V10.9602ZM10.1695 4.01963C11.0774 5.29891 11.9147 6.62691 12.6775 7.99766C13.8168 7.54862 14.7587 6.98219 15.5171 6.35149C15.7803 6.13454 16.0281 5.89951 16.2586 5.64811C14.918 4.52058 13.2218 3.90349 11.4701 3.90597C11.0341 3.90567 10.5989 3.94339 10.1695 4.0187V4.01963ZM4.25279 9.49292C4.88743 9.4769 5.52133 9.43868 6.1533 9.37833C7.68083 9.2417 9.19531 8.98565 10.6829 8.61254C9.90543 7.26188 9.06607 5.94782 8.16747 4.67456C7.20764 5.15006 6.36129 5.82643 5.68585 6.65779C5.01041 7.48915 4.52167 8.45606 4.25279 9.49292ZM5.67817 16.0497C6.03964 15.5215 6.51477 14.9271 7.14548 14.2805C8.50006 12.8924 10.0987 11.8117 11.9489 11.2155L12.0067 11.1987C11.853 10.8596 11.7086 10.5568 11.5632 10.2718C9.85278 10.7702 8.05102 11.0813 6.25578 11.2425C5.38005 11.3217 4.59469 11.3562 4.01709 11.3618C4.01544 13.069 4.60242 14.7247 5.6791 16.0497H5.67817ZM14.2696 18.267C13.9103 16.4552 13.4018 14.6762 12.7492 12.9483C10.8841 13.6256 9.39815 14.6159 8.24945 15.7972C7.78588 16.2653 7.37449 16.7822 7.02251 17.3391C8.30704 18.2975 9.86738 18.8142 11.4701 18.812C12.4296 18.8133 13.3802 18.6289 14.2696 18.2688V18.267ZM16.0145 17.2655C17.4691 16.1473 18.4599 14.5318 18.7973 12.7285C18.4805 12.6493 18.079 12.5701 17.6374 12.5086C16.6556 12.3672 15.6594 12.3569 14.6749 12.4778C15.2292 14.0419 15.6768 15.6417 16.0145 17.2664V17.2655ZM11.4701 20.6752C6.32472 20.6752 2.15384 16.5043 2.15384 11.359C2.15384 6.21361 6.32472 2.04272 11.4701 2.04272C16.6154 2.04272 20.7863 6.21361 20.7863 11.359C20.7863 16.5043 16.6154 20.6752 11.4701 20.6752Z" fill="white"/>
</svg>
