<svg width="23" height="23" viewBox="0 0 23 23" fill="none" xmlns="http://www.w3.org/2000/svg">
<path d="M11.5299 2.04272C6.3827 2.04272 2.21369 6.21174 2.21369 11.359C2.21263 13.3147 2.82745 15.2211 3.97093 16.8077C5.11441 18.3944 6.72847 19.5806 8.58413 20.1982C9.04994 20.2793 9.22416 19.9998 9.22416 19.7548C9.22416 19.534 9.21204 18.8008 9.21204 18.0201C6.87181 18.4514 6.26625 17.4499 6.07992 16.9254C5.97465 16.6571 5.52095 15.8308 5.12501 15.609C4.79894 15.4348 4.33313 15.0035 5.1129 14.9923C5.84702 14.9802 6.37059 15.6677 6.54574 15.9472C7.3842 17.3558 8.72387 16.9599 9.25863 16.7158C9.34061 16.1102 9.58469 15.7031 9.853 15.4702C7.78014 15.2373 5.61411 14.4333 5.61411 10.8699C5.61411 9.85625 5.97465 9.01872 6.56903 8.36566C6.47587 8.13275 6.1498 7.17784 6.66219 5.89685C6.66219 5.89685 7.44196 5.65277 9.22416 6.8527C9.98256 6.64221 10.7661 6.53627 11.5532 6.53781C12.3451 6.53781 13.137 6.64215 13.8823 6.85177C15.6635 5.64066 16.4442 5.89778 16.4442 5.89778C16.9566 7.17877 16.6306 8.13368 16.5374 8.36659C17.1308 9.01872 17.4923 9.84508 17.4923 10.8699C17.4923 14.4454 15.3151 15.2373 13.2423 15.4702C13.5795 15.7609 13.8711 16.3199 13.8711 17.1937C13.8711 18.4393 13.859 19.4408 13.859 19.7557C13.859 19.9998 14.0341 20.2904 14.4999 20.1973C16.3492 19.5729 17.9562 18.3843 19.0946 16.7989C20.233 15.2134 20.8456 13.3108 20.8462 11.359C20.8462 6.21174 16.6771 2.04272 11.5299 2.04272Z" fill="white"/>
</svg>
