<svg width="165" height="166" viewBox="0 0 165 166" fill="none" xmlns="http://www.w3.org/2000/svg">
<path d="M164.306 85.0579L155.315 84.8813L155.332 83.965L164.323 84.1417L164.306 85.0579Z" fill="white"/>
<path d="M162.121 90.9489C162.04 91.8003 161.714 92.4697 161.142 92.9571C160.578 93.4453 159.806 93.6411 158.824 93.5445L154.726 93.1412L154.812 92.2421L158.807 92.6352C159.567 92.71 160.166 92.5717 160.604 92.2202C161.042 91.8774 161.292 91.3716 161.356 90.7026C161.421 90.0163 161.26 89.448 160.872 88.9977C160.484 88.5474 159.876 88.2815 159.047 88.2L155.231 87.8245L155.318 86.9123L162.31 87.6003L162.223 88.5125L161.032 88.3953C161.438 88.6632 161.731 89.0209 161.913 89.4684C162.103 89.9168 162.172 90.4103 162.121 90.9489Z" fill="white"/>
<path d="M160.775 99.9568C160.601 100.794 160.204 101.422 159.582 101.842C158.969 102.264 158.18 102.371 157.215 102.164L153.186 101.301L153.369 100.417L157.297 101.259C158.044 101.419 158.655 101.349 159.129 101.049C159.601 100.758 159.905 100.283 160.041 99.6257C160.181 98.951 160.082 98.368 159.746 97.8766C159.409 97.3853 158.834 97.0524 158.02 96.8779L154.268 96.0739L154.454 95.1771L161.327 96.6502L161.142 97.547L159.971 97.2961C160.345 97.6081 160.597 97.9967 160.729 98.462C160.869 98.929 160.884 99.4273 160.775 99.9568Z" fill="white"/>
<path d="M151.584 106.357C151.792 105.72 152.119 105.191 152.563 104.771C153.014 104.363 153.544 104.096 154.154 103.972C154.77 103.858 155.423 103.919 156.115 104.153C156.807 104.387 157.36 104.741 157.775 105.212C158.198 105.687 158.464 106.228 158.573 106.835C158.69 107.445 158.644 108.069 158.436 108.706C158.227 109.344 157.896 109.871 157.444 110.288C156.996 110.716 156.465 110.987 155.849 111.1C155.239 111.225 154.588 111.17 153.896 110.935C153.213 110.704 152.659 110.351 152.236 109.876C151.813 109.402 151.544 108.855 151.43 108.237C151.324 107.622 151.375 106.995 151.584 106.357ZM152.328 106.61C152.182 107.057 152.144 107.504 152.215 107.951C152.294 108.401 152.495 108.809 152.817 109.176C153.146 109.554 153.603 109.843 154.189 110.041C154.775 110.24 155.305 110.29 155.78 110.194C156.262 110.1 156.664 109.895 156.984 109.58C157.312 109.268 157.549 108.889 157.695 108.442C157.841 107.994 157.875 107.546 157.796 107.096C157.726 106.649 157.525 106.241 157.194 105.871C156.868 105.512 156.412 105.234 155.826 105.035C155.24 104.837 154.707 104.78 154.227 104.866C153.753 104.963 153.353 105.163 153.028 105.467C152.708 105.782 152.475 106.163 152.328 106.61Z" fill="white"/>
<path d="M149.632 114.181L154.252 118.962L153.858 119.844L148.628 114.278L149.048 113.337L156.608 113.681L156.21 114.575L149.632 114.181Z" fill="white"/>
<path d="M150.275 119.201C150.897 119.571 151.369 120.02 151.693 120.546C152.019 121.085 152.18 121.651 152.176 122.245C152.175 122.852 152.012 123.437 151.686 124.002C151.348 124.589 150.925 125.015 150.415 125.278C149.902 125.548 149.384 125.654 148.861 125.595L150.193 126.389L149.738 127.18L143.677 123.567L144.132 122.776L145.475 123.577C145.174 123.134 145.009 122.616 144.983 122.024C144.959 121.443 145.116 120.859 145.454 120.272C145.775 119.714 146.195 119.287 146.714 118.99C147.229 118.7 147.797 118.568 148.418 118.594C149.035 118.628 149.654 118.83 150.275 119.201ZM147.163 124.583C147.651 124.874 148.139 125.028 148.626 125.045C149.113 125.062 149.558 124.954 149.962 124.719C150.361 124.491 150.682 124.167 150.925 123.745C151.176 123.308 151.305 122.859 151.312 122.398C151.319 121.937 151.196 121.495 150.943 121.071C150.694 120.659 150.317 120.303 149.814 120.003C149.318 119.707 148.825 119.545 148.335 119.516C147.848 119.498 147.405 119.603 147.005 119.831C146.614 120.063 146.292 120.397 146.04 120.834C145.798 121.255 145.676 121.699 145.677 122.164C145.673 122.638 145.797 123.086 146.05 123.51C146.303 123.934 146.674 124.291 147.163 124.583Z" fill="white"/>
<path d="M147.042 129.742L143.487 127.171C143.137 126.918 142.849 126.811 142.622 126.85C142.394 126.889 142.161 127.08 141.923 127.421L141.446 128.104L140.817 127.649L141.376 126.849C141.743 126.322 142.136 126.017 142.552 125.933C142.976 125.854 143.464 126.014 144.016 126.413L147.571 128.985L148.137 128.174L148.756 128.621L148.189 129.432L149.626 130.471L149.097 131.229L147.66 130.19L146.542 131.79L145.923 131.343L147.042 129.742Z" fill="white"/>
<path d="M146.176 134.459C146.288 134.315 146.434 134.232 146.615 134.211C146.796 134.189 146.96 134.238 147.108 134.357C147.256 134.476 147.337 134.625 147.352 134.803C147.373 134.987 147.327 135.151 147.216 135.295C147.104 135.439 146.958 135.521 146.777 135.543C146.603 135.57 146.442 135.524 146.294 135.405C146.146 135.286 146.062 135.134 146.04 134.95C146.019 134.766 146.065 134.602 146.176 134.459ZM144.858 133.982L139.348 129.548L139.906 128.829L145.416 133.263L144.858 133.982Z" fill="white"/>
<path d="M136.007 133.352C136.455 132.859 136.967 132.513 137.541 132.317C138.117 132.133 138.708 132.112 139.314 132.254C139.921 132.409 140.493 132.737 141.028 133.241C141.564 133.744 141.926 134.297 142.113 134.901C142.307 135.511 142.331 136.115 142.184 136.714C142.044 137.319 141.75 137.868 141.302 138.362C140.854 138.856 140.34 139.198 139.759 139.389C139.178 139.591 138.584 139.616 137.977 139.461C137.371 139.319 136.799 138.996 136.264 138.493C135.734 137.996 135.373 137.442 135.179 136.833C134.985 136.223 134.961 135.612 135.107 135.001C135.259 134.396 135.559 133.846 136.007 133.352ZM136.584 133.894C136.27 134.24 136.054 134.632 135.938 135.069C135.828 135.512 135.846 135.969 135.992 136.438C136.138 136.92 136.438 137.374 136.892 137.801C137.346 138.227 137.809 138.495 138.28 138.606C138.758 138.722 139.207 138.704 139.626 138.551C140.051 138.404 140.42 138.157 140.734 137.811C141.049 137.465 141.261 137.07 141.371 136.627C141.487 136.19 141.469 135.734 141.317 135.258C141.165 134.795 140.863 134.35 140.409 133.924C139.955 133.497 139.492 133.223 139.02 133.1C138.548 132.99 138.103 133.005 137.683 133.145C137.264 133.298 136.898 133.548 136.584 133.894Z" fill="white"/>
<path d="M134.639 144.973C134.003 145.532 133.313 145.787 132.569 145.738C131.83 145.696 131.138 145.295 130.493 144.536L127.801 141.366L128.473 140.775L131.098 143.866C131.597 144.454 132.124 144.774 132.68 144.828C133.229 144.887 133.753 144.697 134.253 144.257C134.765 143.807 135.034 143.282 135.059 142.683C135.083 142.085 134.824 141.466 134.28 140.825L131.773 137.873L132.454 137.274L137.047 142.682L136.366 143.282L135.583 142.36C135.695 142.839 135.665 143.304 135.493 143.755C135.326 144.213 135.042 144.619 134.639 144.973Z" fill="white"/>
<path d="M124.92 153.955L124.261 153.594L125.337 151.888L123.356 152.194L123.306 151.416L125.3 151.444L124.074 149.803L124.701 149.391L125.679 151.195L126.464 149.322L127.159 149.691L126.072 151.404L128.035 151.095L128.085 151.872L126.073 151.84L127.299 153.481L126.662 153.9L125.706 152.082L124.92 153.955Z" fill="white"/>
<path d="M118.965 157.863L114.886 149.707L115.689 149.291L119.768 157.447L118.965 157.863Z" fill="white"/>
<path d="M112.857 158.646C112.08 158.973 111.346 158.994 110.655 158.709C109.967 158.432 109.434 157.83 109.056 156.903L107.481 153.033L108.301 152.687L109.837 156.461C110.129 157.178 110.531 157.652 111.041 157.88C111.544 158.112 112.101 158.1 112.711 157.843C113.337 157.579 113.754 157.167 113.963 156.607C114.171 156.046 114.116 155.375 113.797 154.593L112.33 150.989L113.162 150.638L115.85 157.242L115.018 157.593L114.561 156.468C114.519 156.958 114.346 157.39 114.043 157.763C113.744 158.144 113.348 158.438 112.857 158.646Z" fill="white"/>
<path d="M104.26 161.693C103.452 161.93 102.721 161.867 102.065 161.504C101.412 161.15 100.949 160.491 100.677 159.526L99.5397 155.5L100.393 155.25L101.501 159.176C101.712 159.923 102.059 160.439 102.541 160.725C103.015 161.013 103.569 161.064 104.204 160.879C104.855 160.688 105.315 160.327 105.584 159.794C105.853 159.261 105.873 158.588 105.643 157.774L104.585 154.025L105.45 153.772L107.39 160.642L106.524 160.895L106.194 159.725C106.098 160.207 105.879 160.616 105.537 160.952C105.197 161.297 104.771 161.544 104.26 161.693Z" fill="white"/>
<path d="M94.3897 156.406C95.0411 156.295 95.653 156.342 96.2256 156.545C96.7911 156.759 97.2706 157.111 97.6642 157.602C98.0507 158.102 98.304 158.719 98.4241 159.45C98.5442 160.182 98.4965 160.845 98.281 161.439C98.0669 162.042 97.7216 162.534 97.2452 162.916C96.7702 163.306 96.207 163.557 95.5556 163.668C94.9042 163.778 94.2915 163.728 93.7176 163.516C93.1366 163.314 92.6528 162.962 92.2663 162.462C91.8727 161.971 91.6159 161.36 91.4958 160.628C91.3771 159.905 91.4248 159.242 91.6389 158.639C91.853 158.036 92.2018 157.539 92.6853 157.147C93.1702 156.764 93.7383 156.517 94.3897 156.406ZM94.519 157.194C94.0622 157.272 93.6562 157.447 93.301 157.72C92.9471 158.001 92.6864 158.373 92.5188 158.835C92.3441 159.307 92.3077 159.853 92.4094 160.473C92.5112 161.093 92.7151 161.593 93.0212 161.975C93.3287 162.365 93.694 162.63 94.117 162.771C94.5415 162.92 94.9822 162.956 95.439 162.878C95.8958 162.8 96.3011 162.621 96.6549 162.339C97.0101 162.067 97.2708 161.695 97.437 161.224C97.5962 160.763 97.6249 160.223 97.5232 159.603C97.4214 158.984 97.221 158.478 96.922 158.086C96.6159 157.705 96.2548 157.439 95.8388 157.288C95.4158 157.148 94.9758 157.116 94.519 157.194Z" fill="white"/>
<path d="M86.7465 158.295L84.7632 164.69L83.813 164.749L86.1918 157.438L87.2062 157.374L90.4516 164.332L89.4886 164.392L86.7465 158.295Z" fill="white"/>
<path d="M82.4094 161.216C82.3788 161.948 82.2107 162.583 81.905 163.12C81.5903 163.666 81.174 164.076 80.6561 164.35C80.1292 164.633 79.5444 164.761 78.9018 164.733C78.2334 164.704 77.6658 164.523 77.1991 164.188C76.7237 163.853 76.3891 163.436 76.1953 162.939L76.1298 164.509L75.23 164.47L75.5281 157.328L76.4279 157.367L76.3618 158.949C76.605 158.471 76.9775 158.081 77.4794 157.779C77.9724 157.486 78.5531 157.354 79.2215 157.383C79.8556 157.41 80.4233 157.587 80.9247 157.915C81.4176 158.242 81.798 158.691 82.066 159.261C82.3255 159.832 82.44 160.483 82.4094 161.216ZM76.2788 160.938C76.2548 161.513 76.3494 162.024 76.5625 162.47C76.7757 162.916 77.0788 163.265 77.4717 163.518C77.856 163.771 78.2881 163.907 78.768 163.928C79.265 163.95 79.7153 163.855 80.1189 163.646C80.5226 163.436 80.8492 163.118 81.0987 162.692C81.3394 162.275 81.4721 161.769 81.4968 161.176C81.5212 160.592 81.4313 160.073 81.227 159.618C81.0139 159.172 80.7151 158.823 80.3308 158.571C79.9461 158.327 79.5052 158.194 79.0082 158.173C78.5283 158.152 78.0864 158.251 77.6824 158.469C77.2698 158.687 76.9388 159.009 76.6892 159.435C76.4397 159.861 76.3029 160.362 76.2788 160.938Z" fill="white"/>
<path d="M71.7707 163.236L72.3403 158.836C72.3964 158.403 72.3542 158.094 72.214 157.908C72.0737 157.722 71.7995 157.602 71.3913 157.547L70.575 157.437L70.6758 156.659L71.6324 156.787C72.2617 156.871 72.7103 157.081 72.9783 157.416C73.2452 157.76 73.3344 158.274 73.2459 158.958L72.6763 163.358L73.6456 163.488L73.5465 164.254L72.5771 164.124L72.3469 165.902L71.4413 165.78L71.6715 164.002L69.7583 163.746L69.8574 162.98L71.7707 163.236Z" fill="white"/>
<path d="M67.2748 164.662C67.452 164.695 67.5923 164.787 67.6957 164.94C67.7991 165.092 67.8338 165.263 67.7999 165.451C67.766 165.64 67.6749 165.783 67.5268 165.88C67.3771 165.985 67.2136 166.021 67.0365 165.988C66.8593 165.955 66.719 165.863 66.6156 165.71C66.5106 165.567 66.4751 165.4 66.5091 165.211C66.543 165.022 66.6348 164.875 66.7845 164.77C66.9342 164.665 67.0976 164.629 67.2748 164.662ZM67.0702 163.253L68.3334 156.221L69.2193 156.386L67.956 163.418L67.0702 163.253Z" fill="white"/>
<path d="M63.4802 154.99C64.1182 155.163 64.6566 155.463 65.0951 155.889C65.5232 156.322 65.8167 156.844 65.9757 157.457C66.1241 158.075 66.1044 158.743 65.9163 159.459C65.7283 160.176 65.4155 160.76 64.9778 161.21C64.538 161.669 64.0235 161.972 63.4346 162.119C62.8434 162.274 62.2287 162.265 61.5907 162.092C60.9526 161.919 60.4154 161.615 59.979 161.18C59.5322 160.752 59.2345 160.228 59.0861 159.61C58.9271 158.997 58.9416 158.333 59.1296 157.616C59.3154 156.908 59.6283 156.324 60.0681 155.865C60.508 155.407 61.0277 155.101 61.6272 154.947C62.2244 154.802 62.8421 154.817 63.4802 154.99ZM63.2778 155.762C62.8303 155.64 62.3894 155.629 61.9552 155.728C61.5187 155.835 61.1302 156.064 60.7898 156.414C60.4389 156.77 60.1838 157.252 60.0246 157.859C59.8653 158.466 59.8475 159.008 59.9712 159.484C60.0926 159.969 60.3174 160.364 60.6455 160.67C60.9713 160.984 61.358 161.202 61.8055 161.324C62.253 161.445 62.6949 161.453 63.1314 161.345C63.5657 161.246 63.9541 161.018 64.2968 160.659C64.6289 160.307 64.8746 159.827 65.0338 159.22C65.1931 158.613 65.2161 158.068 65.103 157.585C64.9794 157.109 64.7587 156.715 64.4411 156.403C64.113 156.097 63.7253 155.883 63.2778 155.762Z" fill="white"/>
<path d="M52.7599 159.174C51.9775 158.862 51.4343 158.359 51.1304 157.665C50.8234 156.98 50.8501 156.171 51.2104 155.236L52.7143 151.336L53.5406 151.666L52.0743 155.469C51.7955 156.192 51.762 156.816 51.9741 157.341C52.1781 157.864 52.5875 158.247 53.2023 158.493C53.833 158.745 54.4143 158.743 54.9462 158.486C55.4781 158.23 55.896 157.707 56.1999 156.919L57.6005 153.288L58.4388 153.622L55.8727 160.277L55.0344 159.942L55.4715 158.808C55.1072 159.132 54.6888 159.321 54.2161 159.376C53.7403 159.439 53.2549 159.372 52.7599 159.174Z" fill="white"/>
<path d="M40.4347 154.585L40.4444 153.823L42.4286 154.004L41.2446 152.358L41.8988 151.953L42.7979 153.765L43.6587 151.899L44.308 152.273L43.1898 153.991L45.1854 153.832L45.1853 154.629L43.1899 154.442L44.3692 156.069L43.7149 156.475L42.8109 154.645L41.9502 156.511L41.2896 156.131L42.4303 154.426L40.4347 154.585Z" fill="white"/>
<path d="M34.2844 151.042L39.4943 143.583L40.2284 144.114L35.0184 151.573L34.2844 151.042Z" fill="white"/>
<path d="M30.7852 145.918C30.1393 145.371 29.7796 144.719 29.7058 143.964C29.6266 143.215 29.9026 142.455 30.5339 141.684L33.1687 138.465L33.8507 139.043L31.2818 142.182C30.7933 142.778 30.5683 143.36 30.6068 143.927C30.6388 144.488 30.9085 144.983 31.4159 145.413C31.9366 145.855 32.489 146.039 33.0731 145.966C33.6573 145.893 34.2157 145.532 34.7481 144.881L37.2018 141.884L37.8937 142.47L33.3981 147.963L32.7061 147.376L33.4719 146.44C33.0261 146.631 32.5704 146.676 32.1047 146.577C31.6336 146.484 31.1938 146.264 30.7852 145.918Z" fill="white"/>
<path d="M24.1388 139.606C23.5575 138.988 23.272 138.3 23.2822 137.541C23.2862 136.788 23.6444 136.064 24.3569 135.37L27.3307 132.473L27.9446 133.125L25.0451 135.95C24.4937 136.487 24.2059 137.04 24.1816 137.607C24.1514 138.168 24.3646 138.691 24.8213 139.177C25.2898 139.675 25.8184 139.921 26.4069 139.916C26.9954 139.91 27.5902 139.615 28.1911 139.029L30.9605 136.331L31.5833 136.993L26.5092 141.937L25.8864 141.275L26.7507 140.433C26.2867 140.571 25.8289 140.563 25.3772 140.411C24.9193 140.266 24.5065 139.997 24.1388 139.606Z" fill="white"/>
<path d="M24.1365 128.278C24.5366 128.813 24.7817 129.385 24.8719 129.995C24.95 130.604 24.8676 131.2 24.6248 131.783C24.3699 132.365 23.9525 132.88 23.3725 133.329C22.7925 133.779 22.194 134.045 21.5771 134.128C20.9533 134.217 20.3643 134.136 19.8102 133.885C19.2492 133.639 18.7687 133.249 18.3686 132.715C17.9685 132.18 17.7268 131.605 17.6435 130.989C17.5481 130.372 17.6279 129.773 17.8828 129.191C18.1256 128.608 18.537 128.092 19.117 127.642C19.6902 127.198 20.2887 126.932 20.9125 126.843C21.5362 126.755 22.1312 126.837 22.6974 127.089C23.2567 127.347 23.7364 127.743 24.1365 128.278ZM23.5122 128.762C23.2316 128.387 22.8899 128.103 22.4871 127.911C22.0775 127.723 21.6328 127.662 21.1529 127.727C20.6611 127.79 20.1695 128.012 19.6782 128.392C19.1869 128.773 18.8468 129.19 18.6579 129.644C18.4622 130.102 18.402 130.555 18.4772 131.001C18.5457 131.453 18.7202 131.866 19.0007 132.241C19.2813 132.616 19.6264 132.897 20.036 133.085C20.4388 133.277 20.8835 133.338 21.3702 133.268C21.8448 133.197 22.3278 132.971 22.8191 132.59C23.3104 132.209 23.6565 131.793 23.8574 131.341C24.0463 130.888 24.1091 130.438 24.0459 129.994C23.9707 129.547 23.7927 129.137 23.5122 128.762Z" fill="white"/>
<path d="M18.9291 122.308L12.4471 123.514L11.9509 122.687L19.4141 121.408L19.9439 122.291L15.4178 128.464L14.9149 127.626L18.9291 122.308Z" fill="white"/>
<path d="M14.5024 120.062C13.852 120.378 13.2221 120.524 12.6126 120.5C11.9916 120.473 11.4406 120.291 10.9596 119.953C10.4672 119.612 10.0826 119.146 9.8058 118.555C9.51793 117.941 9.41001 117.345 9.48204 116.769C9.55038 116.184 9.7552 115.689 10.0965 115.281L8.70292 115.957L8.3154 115.13L14.6561 112.054L15.0436 112.881L13.6385 113.563C14.168 113.558 14.6811 113.71 15.178 114.02C15.6634 114.326 16.05 114.786 16.3379 115.401C16.611 115.984 16.7228 116.577 16.6732 117.182C16.62 117.778 16.4084 118.33 16.0384 118.838C15.6647 119.339 15.1527 119.747 14.5024 120.062ZM11.8733 114.419C11.3623 114.667 10.9631 114.991 10.6756 115.392C10.3882 115.792 10.2267 116.229 10.1911 116.7C10.1518 117.164 10.2356 117.617 10.4422 118.058C10.6563 118.515 10.9489 118.876 11.3199 119.14C11.691 119.405 12.1199 119.55 12.6066 119.575C13.082 119.596 13.5828 119.478 14.1093 119.223C14.628 118.971 15.0368 118.647 15.3357 118.251C15.6232 117.851 15.7865 117.418 15.8258 116.955C15.8573 116.494 15.766 116.036 15.552 115.579C15.3453 115.138 15.0525 114.787 14.6737 114.526C14.2912 114.257 13.8566 114.11 13.3699 114.085C12.8831 114.06 12.3843 114.171 11.8733 114.419Z" fill="white"/>
<path d="M7.73367 111.386L11.8227 109.842C12.2247 109.691 12.4738 109.508 12.5699 109.295C12.666 109.082 12.6425 108.779 12.4993 108.386L12.213 107.601L12.9367 107.327L13.2723 108.248C13.493 108.854 13.5204 109.355 13.3543 109.753C13.1803 110.154 12.7756 110.474 12.1404 110.714L8.05135 112.258L8.3914 113.19L7.67975 113.459L7.3397 112.526L5.68721 113.15L5.36953 112.278L7.02202 111.655L6.35087 109.813L7.06252 109.545L7.73367 111.386Z" fill="white"/>
<path d="M4.43889 108.168C4.4932 108.343 4.47841 108.512 4.39454 108.677C4.31066 108.841 4.17877 108.952 3.99886 109.01C3.81895 109.068 3.65236 109.053 3.49909 108.965C3.33763 108.88 3.22976 108.749 3.17545 108.575C3.12115 108.4 3.13593 108.23 3.21981 108.066C3.29551 107.904 3.42331 107.795 3.60322 107.737C3.78313 107.679 3.95381 107.693 4.11526 107.778C4.27671 107.863 4.38459 107.993 4.43889 108.168ZM5.56657 107.325L12.264 105.169L12.5356 106.043L5.83809 108.198L5.56657 107.325Z" fill="white"/>
<path d="M11.0291 100.149C11.1775 100.804 11.1693 101.429 11.0047 102.023C10.8297 102.61 10.5137 103.119 10.0565 103.548C9.58911 103.972 9.00021 104.267 8.28983 104.433C7.57945 104.6 6.92631 104.592 6.33042 104.409C5.72616 104.229 5.22222 103.908 4.81859 103.447C4.4066 102.989 4.12641 102.432 3.97802 101.777C3.82963 101.122 3.84195 100.497 4.01497 99.901C4.17772 99.2985 4.4928 98.7856 4.96022 98.3624C5.41736 97.9327 6.00112 97.6345 6.7115 97.4678C7.41353 97.3031 8.06666 97.311 8.67092 97.4917C9.27517 97.6724 9.78425 97.9963 10.1982 98.4635C10.6037 98.9326 10.8807 99.4946 11.0291 100.149ZM10.2644 100.329C10.1603 99.8696 9.96368 99.4679 9.67446 99.1238C9.37687 98.7816 8.99634 98.5395 8.53287 98.3974C8.05911 98.2488 7.52137 98.2451 6.91963 98.3863C6.3179 98.5275 5.83926 98.7653 5.4837 99.0995C5.11979 99.4357 4.88187 99.8229 4.76994 100.261C4.64966 100.701 4.64155 101.151 4.74561 101.61C4.84968 102.07 5.0505 102.47 5.34808 102.813C5.63731 103.157 6.01784 103.399 6.48967 103.539C6.95121 103.673 7.48285 103.669 8.08459 103.528C8.68632 103.386 9.17011 103.152 9.53594 102.824C9.8915 102.49 10.1304 102.107 10.2526 101.675C10.3645 101.237 10.3685 100.788 10.2644 100.329Z" fill="white"/>
<path d="M2.35729 92.3968C2.26353 91.5468 2.44695 90.8232 2.90754 90.2261C3.35962 89.6299 4.07573 89.2758 5.0559 89.1639L9.14703 88.6965L9.24606 89.5942L5.2572 90.0499C4.49864 90.1365 3.94059 90.3979 3.58306 90.834C3.22456 91.2614 3.08215 91.809 3.15582 92.4769C3.23141 93.1621 3.50476 93.6842 3.97589 94.0432C4.44702 94.4021 5.09595 94.5344 5.9227 94.44L9.73257 94.0047L9.83303 94.9155L2.85254 95.7129L2.75208 94.8022L3.94106 94.6663C3.49003 94.4895 3.13027 94.2012 2.86178 93.8015C2.58478 93.4028 2.41661 92.9346 2.35729 92.3968Z" fill="white"/>
<path d="M0.00695255 82.1012L8.99938 82.1718L8.99242 83.0882L0 83.0176L0.00695255 82.1012Z" fill="white"/>
<path d="M2.12433 76.1797C2.19557 75.3275 2.51436 74.6543 3.08073 74.1602C3.63854 73.6654 4.40884 73.4605 5.39161 73.5456L9.49363 73.9007L9.4184 74.8008L5.41893 74.4546C4.65835 74.3888 4.06088 74.5341 3.62651 74.8907C3.19288 75.2386 2.94807 75.7474 2.89211 76.417C2.83468 77.104 3.00254 77.6704 3.39567 78.1162C3.7888 78.5619 4.39984 78.8206 5.22879 78.8924L9.04879 79.223L8.97247 80.1362L1.97341 79.5304L2.04973 78.6172L3.24188 78.7204C2.83348 78.4573 2.536 78.1031 2.34942 77.6577C2.1543 77.2116 2.07927 76.7189 2.12433 76.1797Z" fill="white"/>
<path d="M3.35255 67.2267C3.51633 66.3877 3.90661 65.7547 4.52338 65.3277C5.13174 64.899 5.91963 64.7824 6.88704 64.978L10.925 65.7944L10.752 66.6804L6.81501 65.8845C6.06632 65.7331 5.45668 65.8101 4.98609 66.1154C4.51718 66.4121 4.21838 66.8901 4.08969 67.5492C3.95766 68.2255 4.06268 68.8074 4.40474 69.2948C4.74681 69.7822 5.32584 70.1083 6.14183 70.2733L9.90214 71.0336L9.72666 71.9324L2.83697 70.5395L3.01245 69.6406L4.18597 69.8779C3.80881 69.5703 3.55181 69.1846 3.41498 68.7209C3.26974 68.2555 3.24893 67.7574 3.35255 67.2267Z" fill="white"/>
<path d="M12.5508 60.424C12.347 61.0633 12.0243 61.5944 11.5828 62.0175C11.1357 62.4296 10.6076 62.7003 9.99834 62.8294C9.38358 62.9475 8.72948 62.8921 8.03607 62.6631C7.34265 62.434 6.78662 62.0852 6.36799 61.6166C5.9412 61.1453 5.67119 60.6065 5.55798 60.0002C5.4366 59.3912 5.47784 58.7671 5.6817 58.1278C5.88557 57.4886 6.21233 56.9588 6.66201 56.5384C7.10617 56.107 7.63563 55.8322 8.2504 55.7141C8.85966 55.5849 9.511 55.6349 10.2044 55.8639C10.8897 56.0902 11.4457 56.439 11.8725 56.9103C12.2993 57.3816 12.572 57.9259 12.6908 58.5432C12.8013 59.1578 12.7547 59.7848 12.5508 60.424ZM11.8044 60.1775C11.9474 59.7292 11.9818 59.2818 11.9078 58.8352C11.8257 58.386 11.6218 57.9791 11.2962 57.6147C10.9651 57.2392 10.5058 56.9545 9.91848 56.7605C9.33111 56.5665 8.8005 56.5197 8.32663 56.6202C7.8446 56.7179 7.4448 56.9254 7.12723 57.2426C6.80149 57.5571 6.56714 57.9385 6.42418 58.3868C6.28121 58.8351 6.2508 59.2839 6.33296 59.7331C6.40696 60.1797 6.61084 60.5865 6.94461 60.9537C7.27286 61.3099 7.73066 61.5849 8.31803 61.7789C8.9054 61.9729 9.43877 62.0252 9.91814 61.9358C10.392 61.8353 10.7905 61.632 11.1136 61.3258C11.4311 61.0085 11.6614 60.6258 11.8044 60.1775Z" fill="white"/>
<path d="M14.2992 52.8991L9.62641 48.1711L10.0103 47.2846L15.3021 52.7908L14.8922 53.7373L7.32818 53.4784L7.71727 52.5799L14.2992 52.8991Z" fill="white"/>
<path d="M13.5816 47.8867C12.956 47.5232 12.4787 47.08 12.1499 46.5572C11.8178 46.0225 11.6506 45.458 11.6483 44.8637C11.6428 44.2574 11.7996 43.6701 12.1185 43.1016C12.4503 42.5104 12.8693 42.0805 13.3756 41.8119C13.8861 41.5357 14.4031 41.424 14.9265 41.4769L13.5859 40.6978L14.0325 39.902L20.1323 43.4467L19.6858 44.2425L18.334 43.457C18.6405 43.8964 18.8103 44.4122 18.8435 45.0044C18.8734 45.5846 18.7225 46.1704 18.3908 46.7616C18.0761 47.3224 17.6608 47.7545 17.1449 48.0578C16.6333 48.3535 16.0669 48.4917 15.4456 48.4724C14.8286 48.4455 14.2072 48.2503 13.5816 47.8867ZM16.6358 42.4702C16.1443 42.1845 15.6549 42.0358 15.1676 42.0241C14.6804 42.0123 14.2363 42.1261 13.8353 42.3655C13.4386 42.5973 13.1211 42.9254 12.883 43.3498C12.6363 43.7894 12.512 44.2398 12.51 44.701C12.508 45.1622 12.6358 45.6033 12.8933 46.0243C13.1477 46.4335 13.5281 46.7852 14.0346 47.0795C14.5336 47.3695 15.0283 47.5263 15.5187 47.55C16.0059 47.5618 16.4479 47.4517 16.8447 47.22C17.2339 46.9838 17.5519 46.646 17.7986 46.2064C18.0368 45.7819 18.1531 45.3369 18.1477 44.8714C18.1465 44.3984 18.0171 43.9513 17.7595 43.5302C17.502 43.1092 17.1274 42.7558 16.6358 42.4702Z" fill="white"/>
<path d="M16.7024 37.2809L20.2847 39.8124C20.6369 40.0613 20.9264 40.1649 21.1532 40.1233C21.38 40.0817 21.6108 39.8888 21.8457 39.5447L22.3153 38.8565L22.9493 39.3045L22.399 40.111C22.037 40.6415 21.6482 40.9512 21.2325 41.04C20.8098 41.1239 20.3202 40.9692 19.7637 40.5759L16.1814 38.0444L15.6237 38.8617L15.0003 38.4211L15.558 37.6039L14.1102 36.5808L14.6312 35.8173L16.0789 36.8404L17.1796 35.2273L17.8031 35.6679L16.7024 37.2809Z" fill="white"/>
<path d="M17.4899 32.5778C17.3797 32.7228 17.2344 32.8071 17.054 32.8306C16.8735 32.8541 16.7086 32.8071 16.5593 32.6897C16.4101 32.5722 16.3273 32.4244 16.3109 32.2461C16.2878 32.0624 16.3314 31.8981 16.4415 31.7531C16.5517 31.608 16.697 31.5238 16.8775 31.5003C17.0511 31.4714 17.2126 31.5157 17.3619 31.6332C17.5112 31.7506 17.5974 31.9012 17.6205 32.0848C17.6436 32.2685 17.6001 32.4328 17.4899 32.5778ZM18.8137 33.04L24.3711 37.4119L23.8203 38.137L18.2629 33.7651L18.8137 33.04Z" fill="white"/>
<path d="M27.614 33.6129C27.1713 34.1117 26.6636 34.4625 26.0908 34.6652C25.5174 34.8555 24.9267 34.8831 24.3187 34.7477C23.7102 34.6 23.1354 34.2776 22.5943 33.7804C22.0533 33.2831 21.6857 32.7336 21.4916 32.1319C21.2912 31.5243 21.261 30.9203 21.401 30.3198C21.5346 29.7134 21.8227 29.1609 22.2653 28.6621C22.708 28.1633 23.2189 27.8155 23.7981 27.6186C24.3766 27.4095 24.9702 27.3787 25.5788 27.5264C26.1867 27.6617 26.7612 27.978 27.3023 28.4753C27.8369 28.9666 28.2045 29.5161 28.4049 30.1237C28.6054 30.7313 28.6359 31.3415 28.4965 31.9543C28.3508 32.5613 28.0566 33.1142 27.614 33.6129ZM27.0316 33.0777C27.342 32.7279 27.553 32.3338 27.6647 31.8955C27.77 31.4512 27.7471 30.9951 27.5962 30.5271C27.4447 30.0468 27.1397 29.596 26.6814 29.1748C26.2231 28.7536 25.7576 28.4904 25.2847 28.3851C24.8055 28.274 24.3573 28.2972 23.9401 28.4548C23.5165 28.6065 23.1496 28.8573 22.8391 29.2071C22.5287 29.5569 22.3209 29.9539 22.2156 30.3981C22.1039 30.8364 22.1267 31.2925 22.284 31.7664C22.4407 32.2279 22.7482 32.6693 23.2065 33.0905C23.6648 33.5117 24.1307 33.7811 24.6042 33.8987C25.077 34.0039 25.5223 33.984 25.9401 33.8387C26.3573 33.6811 26.7211 33.4275 27.0316 33.0777Z" fill="white"/>
<path d="M28.8102 21.9814C29.4401 21.4151 30.1275 21.1523 30.8724 21.193C31.6117 21.2272 32.3078 21.6204 32.9608 22.3726L35.6866 25.5122L35.0213 26.1104L32.3637 23.0492C31.8583 22.467 31.3276 22.1523 30.7714 22.1049C30.2217 22.0518 29.6994 22.2477 29.2045 22.6926C28.6967 23.1492 28.4338 23.6767 28.4156 24.2754C28.3974 24.8741 28.6638 25.4906 29.2146 26.1251L31.7529 29.0489L31.0781 29.6557L26.4272 24.2986L27.1021 23.6919L27.8943 24.6043C27.7775 24.127 27.8027 23.6618 27.97 23.2085C28.1317 22.7488 28.4117 22.3397 28.8102 21.9814Z" fill="white"/>
<path d="M38.3812 12.8774L39.0438 13.2317L37.9861 14.9496L39.9638 14.6216L40.0222 15.3988L38.0276 15.3927L39.2717 17.0196L38.6496 17.4389L37.6522 15.6457L36.8866 17.5279L36.1884 17.1663L37.2568 15.4412L35.2969 15.7729L35.2385 14.9956L37.2509 15.0054L36.0069 13.3785L36.6397 12.952L37.6156 14.7596L38.3812 12.8774Z" fill="white"/>
<path d="M44.2476 8.8899L48.4155 16.999L47.6175 17.4237L43.4496 9.31465L44.2476 8.8899Z" fill="white"/>
<path d="M50.3715 7.99786C51.1444 7.66172 51.8781 7.6321 52.5727 7.90902C53.2639 8.1779 53.8033 8.77383 54.1909 9.6968L55.8088 13.5492L54.9925 13.9042L53.4151 10.1481C53.1151 9.43382 52.7085 8.96524 52.1951 8.74238C51.6897 8.51609 51.1334 8.535 50.5261 8.79911C49.903 9.07008 49.4904 9.48682 49.2883 10.0493C49.0861 10.6118 49.1485 11.2823 49.4755 12.0608L50.9821 15.6484L50.154 16.0085L47.3935 9.43537L48.2216 9.07522L48.6918 10.1948C48.7284 9.70435 48.896 9.27075 49.1948 8.894C49.4903 8.50923 49.8825 8.21052 50.3715 7.99786Z" fill="white"/>
<path d="M59.252 4.7194C60.0581 4.47697 60.7902 4.53436 61.4484 4.89156C62.1042 5.2404 62.5719 5.89609 62.8515 6.85866L64.0183 10.8763L63.167 11.1324L62.0294 7.21514C61.813 6.4702 61.4626 5.95669 60.9783 5.67461C60.5021 5.39006 59.9474 5.34303 59.314 5.53351C58.6643 5.72894 58.2069 6.09404 57.9418 6.62882C57.6768 7.1636 57.6622 7.83694 57.898 8.64884L58.9846 12.3903L58.121 12.65L56.1301 5.7949L56.9937 5.53515L57.3328 6.70278C57.4251 6.21996 57.6412 5.80912 57.981 5.47028C58.3184 5.12307 58.7421 4.87278 59.252 4.7194Z" fill="white"/>
<path d="M69.1587 9.90177C68.5081 10.0176 67.8959 9.97594 67.3218 9.77687C66.7547 9.56769 66.2726 9.21936 65.8753 8.73185C65.485 8.23425 65.2271 7.62006 65.1015 6.88927C64.9759 6.15848 65.0186 5.49519 65.2296 4.89941C65.4392 4.29503 65.7807 3.80006 66.2543 3.4145C66.7264 3.02034 67.2877 2.76536 67.9382 2.64956C68.5887 2.53376 69.2018 2.57969 69.7773 2.78736C70.3598 2.98493 70.8462 3.33252 71.2365 3.83012C71.6337 4.31762 71.8951 4.92677 72.0207 5.65755C72.1449 6.37975 72.1022 7.04303 71.8926 7.64741C71.6831 8.2518 71.338 8.75182 70.8575 9.14748C70.3755 9.53454 69.8092 9.78597 69.1587 9.90177ZM69.0235 9.1151C69.4797 9.03389 69.8844 8.85552 70.2375 8.58C70.5892 8.29588 70.8471 7.92213 71.0113 7.45874C71.1824 6.98525 71.2147 6.439 71.1083 5.81998C71.0019 5.20096 70.7942 4.70186 70.4853 4.32269C70.1748 3.93493 69.8075 3.67247 69.3834 3.53531C68.9579 3.38955 68.517 3.35728 68.0607 3.43849C67.6045 3.5197 67.2006 3.70236 66.8489 3.98648C66.4957 4.262 66.2378 4.63576 66.0752 5.10774C65.9195 5.56963 65.8948 6.11008 66.0012 6.7291C66.1076 7.34812 66.3118 7.85226 66.6138 8.24153C66.9228 8.6207 67.2859 8.88392 67.703 9.03118C68.1271 9.16834 68.5672 9.19631 69.0235 9.1151Z" fill="white"/>
<path d="M76.319 7.96382L78.2295 1.5462L79.179 1.47526L76.8835 8.8143L75.8698 8.89004L72.5456 1.97091L73.5079 1.89901L76.319 7.96382Z" fill="white"/>
<path d="M81.0334 4.94883C81.0584 4.21611 81.2217 3.57999 81.5233 3.04046C81.8338 2.4925 82.247 2.07918 82.7628 1.80049C83.2876 1.51338 83.8713 1.38119 84.5142 1.40392C85.1828 1.42757 85.7517 1.60488 86.221 1.93588C86.6989 2.26718 87.0366 2.68085 87.2342 3.17691L87.2878 1.6068L88.1878 1.63863L87.9439 8.7826L87.0439 8.75077L87.0979 7.16758C86.8584 7.64818 86.4888 8.04121 85.9892 8.34668C85.4985 8.64372 84.9188 8.78042 84.2503 8.75678C83.616 8.73435 83.0469 8.56139 82.543 8.23791C82.0477 7.91473 81.6639 7.46886 81.3915 6.90029C81.1277 6.33203 81.0083 5.68154 81.0334 4.94883ZM87.1658 5.17879C87.1855 4.60308 87.0871 4.09307 86.8705 3.64875C86.654 3.20442 86.3483 2.85738 85.9535 2.60762C85.5672 2.35816 85.1341 2.22494 84.6541 2.20797C84.157 2.19039 83.7074 2.28802 83.3053 2.50087C82.9033 2.71372 82.5791 3.03412 82.3328 3.46208C82.0953 3.88162 81.9665 4.38796 81.9462 4.98111C81.9263 5.56554 82.0201 6.08412 82.2278 6.53686C82.4443 6.98119 82.7457 7.32808 83.132 7.57754C83.5185 7.81827 83.9604 7.94743 84.4575 7.96501C84.9375 7.98199 85.3787 7.87969 85.781 7.65811C86.1919 7.43684 86.5205 7.11223 86.7669 6.68428C87.0132 6.25632 87.1462 5.75449 87.1658 5.17879Z" fill="white"/>
<path d="M91.3051 2.77621L90.7852 7.18279C90.7341 7.61608 90.7798 7.92494 90.9221 8.10936C91.0645 8.29377 91.3401 8.41095 91.7488 8.46088L92.5663 8.56075L92.4743 9.34068L91.5163 9.22364C90.8861 9.14666 90.4352 8.94212 90.1634 8.61004C89.8926 8.26928 89.7976 7.7566 89.8783 7.072L90.3981 2.66542L89.4274 2.54683L89.5178 1.7799L90.4886 1.8985L90.6987 0.117666L91.6056 0.228458L91.3955 2.00929L93.3115 2.24335L93.2211 3.01028L91.3051 2.77621Z" fill="white"/>
<path d="M96.1237 1.33916C95.9463 1.30758 95.8053 1.21602 95.7007 1.0645C95.5961 0.912981 95.5601 0.742648 95.5926 0.553502C95.6251 0.364357 95.7151 0.220881 95.8625 0.123075C96.0114 0.0166712 96.1746 -0.0207395 96.352 0.0108429C96.5294 0.0424252 96.6704 0.133977 96.775 0.285498C96.881 0.428422 96.9178 0.594457 96.8852 0.783602C96.8527 0.972748 96.762 1.12052 96.6131 1.22693C96.4642 1.33333 96.3011 1.37074 96.1237 1.33916ZM96.3389 2.74643L95.1285 9.78779L94.2414 9.62988L95.4518 2.58852L96.3389 2.74643Z" fill="white"/>
<path d="M99.7936 10.9043C99.1536 10.7383 98.612 10.4448 98.1687 10.0236C97.7358 9.59618 97.4364 9.07724 97.2706 8.46682C97.1153 7.8501 97.1276 7.18228 97.3075 6.46336C97.4875 5.74443 97.7938 5.15733 98.2264 4.70206C98.6611 4.23832 99.1721 3.92946 99.7594 3.77549C100.349 3.61306 100.963 3.61479 101.603 3.78071C102.243 3.94662 102.784 4.24439 103.225 4.67401C103.677 5.09732 103.98 5.61734 104.136 6.23406C104.301 6.84448 104.294 7.50915 104.114 8.22807C103.937 8.93854 103.63 9.52564 103.196 9.98937C102.761 10.4531 102.245 10.7651 101.647 10.9254C101.051 11.0772 100.434 11.0702 99.7936 10.9043ZM99.9873 10.1304C100.436 10.2467 100.877 10.253 101.31 10.1491C101.745 10.0368 102.131 9.80354 102.468 9.44943C102.815 9.08902 103.064 8.60433 103.217 7.99536C103.369 7.3864 103.381 6.84453 103.252 6.36976C103.125 5.88653 102.896 5.49386 102.565 5.19175C102.235 4.88119 101.846 4.66773 101.397 4.55137C100.948 4.43502 100.506 4.43301 100.071 4.54534C99.638 4.64921 99.2522 4.88243 98.9136 5.24499C98.5854 5.60125 98.3451 6.08386 98.1927 6.69283C98.0402 7.3018 98.0233 7.84682 98.1418 8.3279C98.2708 8.80267 98.4958 9.19426 98.8169 9.50267C99.1484 9.80477 99.5385 10.014 99.9873 10.1304Z" fill="white"/>
<path d="M110.348 6.51759C111.134 6.82108 111.683 7.31771 111.994 8.00749C112.309 8.68911 112.291 9.49912 111.941 10.4375L110.48 14.3544L109.65 14.0339L111.075 10.2149C111.345 9.48868 111.372 8.86411 111.154 8.34123C110.944 7.82144 110.531 7.44231 109.913 7.20385C109.28 6.9592 108.698 6.9681 108.169 7.23056C107.64 7.49302 107.228 8.02001 106.933 8.81155L105.573 12.4591L104.731 12.134L107.223 5.4508L108.065 5.77597L107.641 6.91431C108.001 6.58682 108.418 6.39286 108.89 6.33245C109.365 6.26387 109.851 6.32558 110.348 6.51759Z" fill="white"/>
<path d="M122.953 11.0281L122.951 11.7898L120.965 11.6318L122.167 13.2634L121.517 13.6762L120.599 11.8745L119.758 13.7502L119.105 13.3834L120.204 11.6532L118.21 11.8348L118.202 11.0375L120.199 11.2018L119.002 9.58794L119.652 9.17522L120.576 10.9946L121.416 9.11897L122.081 9.49206L120.959 11.2096L122.953 11.0281Z" fill="white"/>
<path d="M128.405 14.7546C128.257 14.65 128.167 14.5067 128.134 14.3245C128.102 14.1423 128.14 13.9723 128.247 13.8146C128.355 13.6568 128.496 13.5651 128.67 13.5394C128.849 13.5066 129.013 13.5424 129.161 13.647C129.308 13.7515 129.399 13.8949 129.431 14.0771C129.468 14.2521 129.433 14.4185 129.325 14.5762C129.218 14.734 129.074 14.8293 128.895 14.8621C128.716 14.895 128.553 14.8591 128.405 14.7546ZM128.019 16.1236L124.012 21.9951L123.273 21.4723L127.279 15.6009L128.019 16.1236Z" fill="white"/>
<path d="M132.677 19.5269C133.329 20.0671 133.696 20.7145 133.778 21.4691C133.865 22.2169 133.597 22.9799 132.974 23.7581L130.374 27.0062L129.686 26.4357L132.221 23.2687C132.703 22.6665 132.922 22.0823 132.877 21.5162C132.839 20.9556 132.564 20.4631 132.052 20.0386C131.527 19.6031 130.972 19.425 130.389 19.5043C129.806 19.5835 129.251 19.9514 128.726 20.6078L126.304 23.6326L125.606 23.0538L130.043 17.5116L130.741 18.0905L129.985 19.0344C130.429 18.8394 130.884 18.789 131.351 18.8832C131.823 18.9706 132.265 19.1852 132.677 19.5269Z" fill="white"/>
<path d="M139.424 25.7593C140.012 26.3707 140.304 27.0559 140.302 27.8151C140.306 28.5681 139.956 29.2956 139.251 29.9976L136.308 32.9275L135.688 32.2818L138.557 29.4251C139.102 28.8819 139.384 28.3264 139.402 27.7588C139.427 27.1974 139.208 26.6765 138.746 26.1962C138.272 25.7033 137.741 25.4629 137.152 25.4749C136.564 25.4869 135.972 25.7889 135.378 26.381L132.638 29.1095L132.008 28.4545L137.029 23.4553L137.658 24.1103L136.803 24.9618C137.266 24.8188 137.723 24.8208 138.177 24.9678C138.636 25.1087 139.052 25.3725 139.424 25.7593Z" fill="white"/>
<path d="M139.582 37.0912C139.176 36.561 138.925 35.9912 138.829 35.382C138.744 34.7742 138.82 34.1774 139.056 33.5917C139.305 33.0074 139.717 32.4874 140.292 32.0315C140.867 31.5756 141.463 31.3027 142.079 31.2127C142.701 31.1173 143.291 31.1919 143.848 31.4365C144.412 31.6757 144.896 32.0604 145.302 32.5906C145.708 33.1208 145.956 33.6932 146.046 34.3079C146.148 34.924 146.074 35.5242 145.826 36.1085C145.589 36.6943 145.183 37.2151 144.608 37.671C144.04 38.1215 143.444 38.3944 142.822 38.4898C142.199 38.5851 141.603 38.5098 141.034 38.2637C140.472 38.0122 139.988 37.6214 139.582 37.0912ZM140.201 36.6004C140.486 36.9723 140.831 37.2522 141.236 37.4402C141.647 37.6229 142.092 37.6792 142.572 37.6092C143.063 37.5408 143.552 37.3135 144.039 36.9273C144.526 36.5411 144.862 36.1203 145.046 35.6647C145.237 35.2037 145.292 34.7505 145.212 34.305C145.139 33.8542 144.96 33.4429 144.675 33.071C144.391 32.6992 144.042 32.4219 143.631 32.2393C143.226 32.0512 142.781 31.9949 142.295 32.0703C141.821 32.1471 141.34 32.3787 140.853 32.7648C140.366 33.151 140.024 33.5711 139.828 34.0252C139.644 34.4808 139.586 34.9305 139.654 35.3745C139.734 35.82 139.917 36.2286 140.201 36.6004Z" fill="white"/>
<path d="M144.865 42.9834L151.334 41.7047L151.839 42.5259L144.39 43.8886L143.851 43.0119L148.31 36.7887L148.822 37.621L144.865 42.9834Z" fill="white"/>
<path d="M149.35 45.2021C149.996 44.8793 150.625 44.7261 151.235 44.7426C151.856 44.763 152.409 44.9391 152.893 45.2708C153.389 45.6064 153.779 46.0681 154.062 46.6559C154.357 47.2671 154.471 47.8613 154.406 48.4385C154.344 49.0235 154.144 49.5216 153.808 49.9327L155.194 49.2409L155.59 50.0637L149.284 53.2114L148.887 52.3886L150.285 51.6911C149.755 51.7026 149.24 51.5561 148.74 51.2516C148.251 50.9511 147.86 50.4953 147.565 49.884C147.286 49.3042 147.168 48.7119 147.21 48.1072C147.257 47.5103 147.463 46.9557 147.827 46.4433C148.195 45.9387 148.703 45.525 149.35 45.2021ZM152.04 50.8148C152.549 50.5611 152.944 50.2324 153.227 49.8287C153.51 49.4249 153.667 48.987 153.697 48.5149C153.732 48.0507 153.643 47.5992 153.431 47.1603C153.212 46.7058 152.916 46.3483 152.542 46.0878C152.168 45.8272 151.738 45.6872 151.251 45.6678C150.775 45.6524 150.275 45.7754 149.752 46.0367C149.236 46.2942 148.831 46.6228 148.536 47.0226C148.253 47.4263 148.094 47.8603 148.06 48.3246C148.034 48.785 148.13 49.2424 148.349 49.6969C148.561 50.1358 148.857 50.4835 149.239 50.7402C149.624 51.0048 150.06 51.1467 150.547 51.1662C151.034 51.1856 151.532 51.0684 152.04 50.8148Z" fill="white"/>
<path d="M156.262 53.8914L152.19 55.4817C151.79 55.6381 151.543 55.8234 151.449 56.0376C151.356 56.2519 151.382 56.5546 151.53 56.9457L151.825 57.728L151.104 58.0094L150.759 57.0927C150.531 56.4897 150.498 55.9884 150.66 55.5887C150.829 55.1859 151.231 54.861 151.863 54.6139L155.935 53.0236L155.584 52.0947L156.293 51.8179L156.643 52.7468L158.289 52.1041L158.616 52.972L156.971 53.6146L157.662 55.448L156.954 55.7248L156.262 53.8914Z" fill="white"/>
<path d="M159.674 57.3165C159.619 57.1422 159.632 56.9726 159.715 56.8076C159.797 56.6427 159.928 56.5306 160.108 56.4713C160.287 56.412 160.454 56.4258 160.608 56.5126C160.77 56.5967 160.879 56.7259 160.935 56.9003C160.99 57.0746 160.977 57.2442 160.894 57.4092C160.819 57.5714 160.693 57.6822 160.513 57.7415C160.334 57.8007 160.163 57.7883 160.001 57.7042C159.839 57.6201 159.73 57.4909 159.674 57.3165ZM158.553 58.1686L151.872 60.3753L151.594 59.5036L158.275 57.297L158.553 58.1686Z" fill="white"/>
<path d="M153.087 65.1207C152.932 64.4676 152.933 63.8431 153.091 63.2473C153.259 62.6579 153.57 62.1456 154.022 61.7106C154.484 61.282 155.07 60.9803 155.778 60.8053C156.487 60.6304 157.14 60.6308 157.738 60.8065C158.344 60.9801 158.852 61.2948 159.261 61.7508C159.678 62.2046 159.964 62.7581 160.12 63.4112C160.276 64.0643 160.27 64.6898 160.104 65.2877C159.948 65.8921 159.639 66.4085 159.176 66.8371C158.724 67.2721 158.143 67.5771 157.435 67.752C156.735 67.9249 156.082 67.9245 155.475 67.7509C154.869 67.5773 154.356 67.2593 153.937 66.797C153.526 66.3326 153.243 65.7738 153.087 65.1207ZM153.85 64.9324C153.959 65.3904 154.16 65.7898 154.454 66.1306C154.755 66.4693 155.138 66.707 155.603 66.8437C156.079 66.9867 156.616 66.9842 157.216 66.836C157.817 66.6878 158.293 66.4445 158.644 66.1062C159.004 65.7658 159.238 65.3758 159.345 64.9362C159.46 64.4946 159.463 64.0448 159.354 63.5868C159.245 63.1288 159.04 62.7304 158.738 62.3917C158.445 62.0509 158.062 61.8132 157.589 61.6786C157.126 61.5505 156.594 61.5605 155.994 61.7087C155.394 61.8568 154.913 62.0969 154.551 62.4288C154.199 62.7672 153.964 63.1529 153.847 63.586C153.74 64.0256 153.741 64.4744 153.85 64.9324Z" fill="white"/>
<path d="M161.86 72.8126C161.963 73.6615 161.788 74.3872 161.334 74.9897C160.889 75.5911 160.177 75.9536 159.198 76.077L155.112 76.5924L155.003 75.6959L158.986 75.1934C159.744 75.0979 160.299 74.83 160.652 74.3897C161.005 73.9582 161.141 73.4089 161.06 72.7419C160.977 72.0577 160.698 71.5388 160.222 71.1854C159.747 70.832 159.097 70.7073 158.271 70.8115L154.467 71.2914L154.356 70.3819L161.327 69.5026L161.438 70.4121L160.25 70.5618C160.703 70.7334 161.066 71.0174 161.339 71.4139C161.621 71.8093 161.794 72.2756 161.86 72.8126Z" fill="white"/>
</svg>
